<svg id="Layer_1" data-name="Layer 1" xmlns="http://www.w3.org/2000/svg" viewBox="0 0 238 46"><defs><style>.cls-1{opacity:0.2;}.cls-2{fill:none;stroke:#000;}</style></defs><g class="cls-1"><path class="cls-2" d="M1.5.5h235c.55,0,1,.61,1,1.37V44.13c0,.76-.45,1.37-1,1.37H1.5c-.55,0-1-.61-1-1.37V1.87C.5,1.11,1,.5,1.5.5Z"/><path d="M92,19.73a4,4,0,0,0-4.12-3.32c-2.61,0-4.51,2-4.51,5.23s1.9,5.23,4.51,5.23A4,4,0,0,0,92,23.55H90.74a2.78,2.78,0,0,1-2.88,2.16c-1.85,0-3.31-1.43-3.31-4.07s1.46-4.08,3.31-4.08a2.79,2.79,0,0,1,2.88,2.17Zm5,7.16c2.08,0,3.47-1.57,3.47-3.94S99,19,96.93,19s-3.47,1.57-3.47,4S94.85,26.89,96.93,26.89Zm0-1.06c-1.58,0-2.3-1.35-2.3-2.88s.72-2.9,2.3-2.9,2.3,1.37,2.3,2.9S98.51,25.83,96.93,25.83Zm5.83-6.74h-1.35l2.43,3.82-2.43,3.82h1.35l1.84-3,1.84,3h1.36l-2.48-3.82,2.48-3.82h-1.36l-1.84,3.12Zm6.72,10.5h1.17v-4h.1A2.39,2.39,0,0,0,113,26.89c1.92,0,3.25-1.53,3.25-4S114.91,19,113,19a2.34,2.34,0,0,0-2.22,1.32h-.14V19.09h-1.13Zm1.15-6.68c0-1.71.76-2.86,2.2-2.86s2.24,1.25,2.24,2.86-.76,2.92-2.24,2.92S110.63,24.64,110.63,22.91Zm9.67,4a2.41,2.41,0,0,0,2.27-1.22h.06v1h1.18v-5A2.52,2.52,0,0,0,121,19a3.12,3.12,0,0,0-3.07,1.79l1.12.4A2.06,2.06,0,0,1,121,20a1.42,1.42,0,0,1,1.62,1.55v0c0,.56-.58.51-2,.69s-3,.5-3,2.25A2.37,2.37,0,0,0,120.3,26.91Zm.18-1.06c-.94,0-1.62-.41-1.62-1.23s.82-1.17,1.74-1.29a6.06,6.06,0,0,0,2-.44V24A2,2,0,0,1,120.48,25.85Zm6.66-6.76H126v7.64h1.18V23.47h3.67v3.26H132V19.09h-1.18v3.28h-3.67ZM135.32,25V19.09h-1.18v7.64h1.38l3.67-5.91v5.91h1.18V19.09H139Zm6.16-4.81H144v6.54h1.18V20.19h2.51v-1.1h-6.23Zm9.13,1.67V19.09h-1.18v7.64h3.21a2.48,2.48,0,0,0,2.78-2.47c0-1.39-1-2.4-2.78-2.4Zm0,1.09h2a1.44,1.44,0,0,1,1.6,1.37c0,.77-.66,1.31-1.6,1.31h-2Z"/></g></svg>